<?xml version="1.0" encoding="UTF-8"?>
<svg width="132px" height="132px" viewBox="0 0 132 132" version="1.1" xmlns="http://www.w3.org/2000/svg" xmlns:xlink="http://www.w3.org/1999/xlink">
    <title>Group 42</title>
    <defs>
        <polygon id="path-1" points="0 0 132 0 132 132 0 132"></polygon>
    </defs>
    <g id="Page-1" stroke="none" stroke-width="1" fill="none" fill-rule="evenodd">
        <g id="About" transform="translate(-486.000000, -534.000000)">
            <g id="Group-42" transform="translate(486.000000, 534.000000)">
                <g id="Group-3">
                    <mask id="mask-2" fill="white">
                        <use xlink:href="#path-1"></use>
                    </mask>
                    <g id="Clip-2"></g>
                    <path d="M132.000136,65.9999322 C132.000136,102.451265 102.450752,132 66.0001357,132 C29.5488405,132 -0.000542763158,102.451265 -0.000542763158,65.9999322 C-0.000542763158,29.5485995 29.5488405,-0.000135690929 66.0001357,-0.000135690929 C102.450752,-0.000135690929 132.000136,29.5485995 132.000136,65.9999322" id="Fill-1" fill="#2F4867" mask="url(#mask-2)"></path>
                </g>
                <path d="M41,88.3804109 L82.0006352,129 C105.458469,123.175126 123.957593,104.966321 130,81.7916632 L88.8256737,41 L41,88.3804109 Z" id="Fill-4" fill="#253A51"></path>
                <path d="M100,65.5 C100,84.001279 85.0018027,99 66.5003374,99 C47.9988721,99 33,84.001279 33,65.5 C33,46.998721 47.9988721,32 66.5003374,32 C85.0018027,32 100,46.998721 100,65.5" id="Fill-6" fill="#DAE7EF"></path>
                <path d="M85.493909,90.5427236 C81.520155,94.0306852 76.7349115,95.0489352 74.8052806,92.8160729 C72.8756498,90.5838854 74.5327755,85.9460908 78.50586,82.4574543 C82.479614,78.9694926 87.2655271,77.9512426 89.1944884,80.1834301 C91.1241192,82.4162924 89.4683326,87.0540871 85.493909,90.5427236" id="Fill-8" fill="#8FBBC4"></path>
                <path d="M96.6309543,76.3145693 C95.9092874,77.6193741 94.3701305,78.312863 93.1933043,77.86278 C92.0164781,77.4133195 91.6474098,75.9902356 92.3690768,74.6854307 C93.0907437,73.3806259 94.629152,72.687137 95.8059782,73.13722 C96.983553,73.587303 97.3526213,75.0097644 96.6309543,76.3145693" id="Fill-10" fill="#8FBBC4"></path>
                <path d="M63.3929898,96.9967856 C60.9085208,96.9153861 58.9417586,95.2833267 59.0013178,93.3521243 C59.0602225,91.4209219 61.1225412,89.9211366 63.6070102,90.0032144 C66.0914792,90.0846139 68.0582414,91.7166733 67.9986822,93.6478757 C67.9397775,95.5790781 65.8774588,97.0788634 63.3929898,96.9967856" id="Fill-12" fill="#8FBBC4"></path>
                <path d="M53.8533609,46.4648547 C50.9392814,48.5699736 47.2995589,48.5014758 45.7230453,46.3122608 C44.1472086,44.1223675 45.2329655,40.6405117 48.1463681,38.5353929 C51.0604476,36.430274 54.700847,36.4980936 56.2766837,38.6879869 C57.8525204,40.8778802 56.7681173,44.3597359 53.8533609,46.4648547" id="Fill-14" fill="#8FBBC4"></path>
                <path d="M44,53 C44,54.6569517 42.6569517,56 41,56 C39.3430483,56 38,54.6569517 38,53 C38,51.3430483 39.3430483,50 41,50 C42.6569517,50 44,51.3430483 44,53" id="Fill-16" fill="#8FBBC4"></path>
                <path d="M81.8660486,38.8912884 C83.8198919,40.7680589 84.5676266,43.2334185 83.5371074,44.3982632 C82.5065883,45.563108 80.0871371,44.985482 78.1339514,43.1087116 C76.1801081,41.2319411 75.4323734,38.7658963 76.4628926,37.6017368 C77.4940694,36.436892 79.9128629,37.014518 81.8660486,38.8912884" id="Fill-18" fill="#8FBBC4"></path>
                <path d="M82,56 C82,58.7612152 79.761925,61 77,61 C74.238075,61 72,58.7612152 72,56 C72,53.2387848 74.238075,51 77,51 C79.761925,51 82,53.2387848 82,56" id="Fill-20" fill="#8FBBC4"></path>
                <path d="M96,101.5 C100.499644,101.5 100.499644,97 100.499644,97 C100.499644,97 100.499644,101.5 105,101.5 C100.499644,101.5 100.499644,106 100.499644,106 C100.499644,106 100.499644,101.5 96,101.5" id="Fill-22" fill="#DAE7EF"></path>
                <path d="M12,37 C18,37 18,31 18,31 C18,31 18,37 24,37 C18,37 18,43 18,43 C18,43 18,37 12,37" id="Fill-24" fill="#DAE7EF"></path>
                <path d="M22,105 C28,105 28,99 28,99 C28,99 28,105 34,105 C28,105 28,111 28,111 C28,111 28,105 22,105" id="Fill-26" fill="#DAE7EF"></path>
                <path d="M111,37 C117,37 117,31 117,31 C117,31 117,37 123,37 C117,37 117,43 117,43 C117,43 117,37 111,37" id="Fill-28" fill="#DAE7EF"></path>
                <path d="M58,119.5 C60.5,119.5 60.5,117 60.5,117 C60.5,117 60.5,119.5 63,119.5 C60.5,119.5 60.5,122 60.5,122 C60.5,122 60.5,119.5 58,119.5" id="Fill-30" fill="#DAE7EF"></path>
                <path d="M79,13.5 C81.5,13.5 81.5,11 81.5,11 C81.5,11 81.5,13.5 84,13.5 C81.5,13.5 81.5,16 81.5,16 C81.5,16 81.5,13.5 79,13.5" id="Fill-32" fill="#DAE7EF"></path>
                <path d="M43,17.4996411 C47.5003589,17.4996411 47.5003589,13 47.5003589,13 C47.5003589,13 47.5003589,17.4996411 52,17.4996411 C47.5003589,17.4996411 47.5003589,22 47.5003589,22 C47.5003589,22 47.5003589,17.4996411 43,17.4996411" id="Fill-34" fill="#DAE7EF"></path>
                <path d="M7,69.5 C9.49966662,69.5 9.49966662,67 9.49966662,67 C9.49966662,67 9.49966662,69.5 12,69.5 C9.49966662,69.5 9.49966662,72 9.49966662,72 C9.49966662,72 9.49966662,69.5 7,69.5" id="Fill-36" fill="#DAE7EF"></path>
                <path d="M115,80.5 C117.5,80.5 117.5,78 117.5,78 C117.5,78 117.5,80.5 120,80.5 C117.5,80.5 117.5,83 117.5,83 C117.5,83 117.5,80.5 115,80.5" id="Fill-38" fill="#DAE7EF"></path>
                <path d="M58.9996595,33 C43.5910312,36.1391419 32,49.7208322 32,66 C32,82.2791678 43.5910312,95.8608581 58.9996595,99 C74.4082878,95.8608581 86,82.2791678 86,66 C86,49.7208322 74.4082878,36.1391419 58.9996595,33" id="Fill-40" fill="#67939F"></path>
            </g>
        </g>
    </g>
</svg>