<?xml version="1.0" encoding="UTF-8"?>
<svg width="132px" height="132px" viewBox="0 0 132 132" version="1.1" xmlns="http://www.w3.org/2000/svg" xmlns:xlink="http://www.w3.org/1999/xlink">
    <title>Group 42</title>
    <defs>
        <polygon id="path-1" points="0 0 132.000136 0 132.000136 132 0 132"></polygon>
    </defs>
    <g id="Page-1" stroke="none" stroke-width="1" fill="none" fill-rule="evenodd">
        <g id="About" transform="translate(-641.000000, -534.000000)">
            <g id="Group-42" transform="translate(641.000000, 534.000000)">
                <g id="Group-3">
                    <mask id="mask-2" fill="white">
                        <use xlink:href="#path-1"></use>
                    </mask>
                    <g id="Clip-2"></g>
                    <path d="M132.000475,65.9999322 C132.000475,102.451265 102.451061,132 66.0004071,132 C29.5497528,132 -0.000339227322,102.451265 -0.000339227322,65.9999322 C-0.000339227322,29.5485995 29.5497528,-0.000135690929 66.0004071,-0.000135690929 C102.451061,-0.000135690929 132.000475,29.5485995 132.000475,65.9999322" id="Fill-1" fill="#2F4867" mask="url(#mask-2)"></path>
                </g>
                <path d="M41.2568269,89.1800814 L82.0964043,130.019659 C105.461025,124.163238 123.887175,105.855818 129.906425,82.5556502 L88.8931629,41.543067 L41.2568269,89.1800814 Z" id="Fill-4" fill="#253A51"></path>
                <path d="M99.6843911,65.9999322 C99.6843911,84.6031585 84.6030228,99.6845268 66.0004749,99.6845268 C47.3965701,99.6845268 32.3158803,84.6031585 32.3158803,65.9999322 C32.3158803,47.3967058 47.3965701,32.3153375 66.0004749,32.3153375 C84.6030228,32.3153375 99.6843911,47.3967058 99.6843911,65.9999322" id="Fill-6" fill="#DAE7EF"></path>
                <path d="M85.3401638,91.448291 C81.3135355,94.955223 76.4646201,95.9790111 74.5093138,93.7340047 C72.5540076,91.4896767 74.2331828,86.8266579 78.2591327,83.3190474 C82.285761,79.8121153 87.1353548,78.7883273 89.0899826,81.0326553 C91.0452889,83.2776617 89.3667921,87.9406804 85.3401638,91.448291" id="Fill-8" fill="#8FBBC4"></path>
                <path d="M96.453183,76.5862671 C95.7991528,78.008308 94.40425,78.7641065 93.3377193,78.2735838 C92.2711886,77.7837395 91.9367105,76.2327922 92.5907407,74.8107512 C93.2440926,73.3887103 94.6389953,72.6329118 95.7048476,73.1234345 C96.7720567,73.6139573 97.1072133,75.1642261 96.453183,76.5862671" id="Fill-10" fill="#8FBBC4"></path>
                <path d="M62.9084179,97.7697243 C60.333004,97.6883097 58.2949263,96.0559478 58.3559872,94.1243875 C58.4170481,92.1928271 60.5548587,90.6927639 63.1302725,90.7748569 C65.7063648,90.8562714 67.7437641,92.4886333 67.6833817,94.4201937 C67.6216423,96.3517541 65.4838317,97.8518173 62.9084179,97.7697243" id="Fill-12" fill="#8FBBC4"></path>
                <path d="M54.2220274,46.8203586 C51.3012801,48.9262818 47.6532295,48.8577579 46.0737871,46.6677063 C44.4936662,44.4769762 45.581229,40.9937901 48.5019763,38.8878669 C51.4227235,36.7819436 55.0707741,36.8497891 56.650895,39.0405192 C58.2303374,41.2312492 57.1427746,44.7144354 54.2220274,46.8203586" id="Fill-14" fill="#8FBBC4"></path>
                <path d="M44.0968381,53.2236135 C44.0968381,54.7922006 42.8254141,56.0636247 41.2568269,56.0636247 C39.6882398,56.0636247 38.4168158,54.7922006 38.4168158,53.2236135 C38.4168158,51.6550264 39.6882398,50.3836024 41.2568269,50.3836024 C42.8254141,50.3836024 44.0968381,51.6550264 44.0968381,53.2236135" id="Fill-16" fill="#8FBBC4"></path>
                <path d="M81.8624053,39.455462 C83.878094,41.3137493 84.649497,43.7548291 83.5863585,44.908202 C82.5232201,46.0615749 80.0271855,45.4896376 78.0114967,43.6313504 C75.9964864,41.7730631 75.2250835,39.3313048 76.2882219,38.1786104 C77.3520388,37.0252375 79.8467165,37.5971748 81.8624053,39.455462" id="Fill-18" fill="#8FBBC4"></path>
                <path d="M81.7206083,56.0636247 C81.7206083,58.7028132 79.5807623,60.8426592 76.9415737,60.8426592 C74.3017067,60.8426592 72.1625392,58.7028132 72.1625392,56.0636247 C72.1625392,53.4244361 74.3017067,51.2845901 76.9415737,51.2845901 C79.5807623,51.2845901 81.7206083,53.4244361 81.7206083,56.0636247" id="Fill-20" fill="#8FBBC4"></path>
                <path d="M96.241166,101.722537 C100.531713,101.722537 100.531713,97.4319895 100.531713,97.4319895 C100.531713,97.4319895 100.531713,101.722537 104.82226,101.722537 C100.531713,101.722537 100.531713,106.013084 100.531713,106.013084 C100.531713,106.013084 100.531713,101.722537 96.241166,101.722537" id="Fill-22" fill="#DAE7EF"></path>
                <path d="M12.0730326,37.3518456 C18.2300085,37.3518456 18.2300085,31.1948696 18.2300085,31.1948696 C18.2300085,31.1948696 18.2300085,37.3518456 24.3869844,37.3518456 C18.2300085,37.3518456 18.2300085,43.5088215 18.2300085,43.5088215 C18.2300085,43.5088215 18.2300085,37.3518456 12.0730326,37.3518456" id="Fill-24" fill="#DAE7EF"></path>
                <path d="M21.4809596,105.841638 C27.6386139,105.841638 27.6386139,99.6846625 27.6386139,99.6846625 C27.6386139,99.6846625 27.6386139,105.841638 33.7955898,105.841638 C27.6386139,105.841638 27.6386139,111.998614 27.6386139,111.998614 C27.6386139,111.998614 27.6386139,105.841638 21.4809596,105.841638" id="Fill-26" fill="#DAE7EF"></path>
                <path d="M110.850466,37.4243724 C117.007441,37.4243724 117.007441,31.2673965 117.007441,31.2673965 C117.007441,31.2673965 117.007441,37.4243724 123.164417,37.4243724 C117.007441,37.4243724 117.007441,43.5813483 117.007441,43.5813483 C117.007441,43.5813483 117.007441,37.4243724 110.850466,37.4243724" id="Fill-28" fill="#DAE7EF"></path>
                <path d="M58.1462769,120.194211 C60.6904818,120.194211 60.6904818,117.650006 60.6904818,117.650006 C60.6904818,117.650006 60.6904818,120.194211 63.2346867,120.194211 C60.6904818,120.194211 60.6904818,122.738416 60.6904818,122.738416 C60.6904818,122.738416 60.6904818,120.194211 58.1462769,120.194211" id="Fill-30" fill="#DAE7EF"></path>
                <path d="M78.798097,13.7509866 C81.342302,13.7509866 81.342302,11.2067817 81.342302,11.2067817 C81.342302,11.2067817 81.342302,13.7509866 83.8858284,13.7509866 C81.342302,13.7509866 81.342302,16.2951915 81.342302,16.2951915 C81.342302,16.2951915 81.342302,13.7509866 78.798097,13.7509866" id="Fill-32" fill="#DAE7EF"></path>
                <path d="M43.6390169,18.0042866 C47.8922491,18.0042866 47.8922491,13.7510544 47.8922491,13.7510544 C47.8922491,13.7510544 47.8922491,18.0042866 52.1461597,18.0042866 C47.8922491,18.0042866 47.8922491,22.2581972 47.8922491,22.2581972 C47.8922491,22.2581972 47.8922491,18.0042866 43.6390169,18.0042866" id="Fill-34" fill="#DAE7EF"></path>
                <path d="M7.3096025,70.1190338 C9.85380742,70.1190338 9.85380742,67.5748289 9.85380742,67.5748289 C9.85380742,67.5748289 9.85380742,70.1190338 12.3980123,70.1190338 C9.85380742,70.1190338 9.85380742,72.6632388 9.85380742,72.6632388 C9.85380742,72.6632388 9.85380742,70.1190338 7.3096025,70.1190338" id="Fill-36" fill="#DAE7EF"></path>
                <path d="M114.463372,80.7205661 C117.007577,80.7205661 117.007577,78.1763612 117.007577,78.1763612 C117.007577,78.1763612 117.007577,80.7205661 119.551104,80.7205661 C117.007577,80.7205661 117.007577,83.264771 117.007577,83.264771 C117.007577,83.264771 117.007577,80.7205661 114.463372,80.7205661" id="Fill-38" fill="#DAE7EF"></path>
                <path d="M66.0002035,32.3154053 C47.3969772,32.3154053 32.3156089,47.3967736 32.3156089,66 C32.3156089,84.6032264 47.3969772,99.6839162 66.0002035,99.6839162 L66.0002035,32.3154053 Z" id="Fill-40" fill="#67939F"></path>
            </g>
        </g>
    </g>
</svg>