<?xml version="1.0" encoding="UTF-8"?>
<svg width="132px" height="132px" viewBox="0 0 132 132" version="1.1" xmlns="http://www.w3.org/2000/svg" xmlns:xlink="http://www.w3.org/1999/xlink">
    <title>Group 42</title>
    <defs>
        <polygon id="path-1" points="0 0 132 0 132 132 0 132"></polygon>
    </defs>
    <g id="Page-1" stroke="none" stroke-width="1" fill="none" fill-rule="evenodd">
        <g id="About" transform="translate(-813.000000, -534.000000)">
            <g id="Group-42" transform="translate(813.000000, 534.000000)">
                <g id="Group-3">
                    <mask id="mask-2" fill="white">
                        <use xlink:href="#path-1"></use>
                    </mask>
                    <g id="Clip-2"></g>
                    <path d="M132.000068,65.9999322 C132.000068,102.451265 102.450669,132 66.0000339,132 C29.5493984,132 0,102.451265 0,65.9999322 C0,29.5485995 29.5493984,-0.000135690929 66.0000339,-0.000135690929 C102.450669,-0.000135690929 132.000068,29.5485995 132.000068,65.9999322" id="Fill-1" fill="#2F4867" mask="url(#mask-2)"></path>
                </g>
                <path d="M41,88.3804109 L82.0010026,129 C105.458657,123.175126 123.956958,104.966321 130,81.7916632 L88.8253077,41 L41,88.3804109 Z" id="Fill-4" fill="#253A51"></path>
                <g id="Group-5" transform="translate(66.500000, 65.500000) rotate(180.000000) translate(-66.500000, -65.500000) translate(33.000000, 32.000000)">
                    <g id="Group-4" transform="translate(0.000000, 0.000000)">
                        <path d="M66.9999325,33.4999325 C66.9999325,52.0013978 52.0010756,66.9995952 33.4996289,66.9995952 C14.9981822,66.9995952 1.53448211e-13,52.0013978 1.53448211e-13,33.4999325 C1.53448211e-13,14.9984672 14.9981822,0.000269897379 33.4996289,0.000269897379 C52.0010756,0.000269897379 66.9999325,14.9984672 66.9999325,33.4999325" id="Fill-6" fill="#DAE7EF"></path>
                        <path d="M52.7341161,58.8087495 C48.7295178,62.2971731 43.9071312,63.315361 41.9625226,61.0826349 C40.0179139,58.8505836 41.6872275,54.2123972 45.6918258,50.7246483 C49.6964242,47.2362247 54.5188107,46.2187115 56.4634194,48.4507629 C58.408028,50.6834889 56.7387144,55.3210006 52.7341161,58.8087495" id="Fill-8" fill="#8FBBC4"></path>
                        <path d="M30.425096,65.0962788 C27.8637725,65.0146349 25.8368452,63.3918769 25.897572,61.4708823 C25.9582989,59.549213 28.0844133,58.05803 30.6457369,58.1389992 C33.2077352,58.2206431 35.2339877,59.8440759 35.1739356,61.7650704 C35.112534,63.686065 32.9864195,65.1772481 30.425096,65.0962788" id="Fill-12" fill="#8FBBC4"></path>
                        <path d="M21.7862294,14.4252727 C18.8814618,16.5196763 15.2526952,16.452202 13.681894,14.2727806 C12.1110929,12.0947088 13.1927055,8.63057595 16.0974731,6.53617229 C19.0022408,4.44109389 22.6303326,4.50991772 24.2018085,6.68798957 C25.7726097,8.86673616 24.690997,12.330869 21.7862294,14.4252727" id="Fill-14" fill="#8FBBC4"></path>
                        <path d="M11.7161659,20.7938387 C11.7161659,22.3538455 10.451698,23.6183148 8.89169271,23.6183148 C7.33168743,23.6183148 6.06721949,22.3538455 6.06721949,20.7938387 C6.06721949,19.2331571 7.33168743,17.9686879 8.89169271,17.9686879 C10.451698,17.9686879 11.7161659,19.2331571 11.7161659,20.7938387" id="Fill-16" fill="#8FBBC4"></path>
                        <path d="M49.1340935,23.6179774 C49.1340935,26.2434041 47.0059549,28.3708702 44.3812055,28.3708702 C41.7564561,28.3708702 39.6283174,26.2434041 39.6283174,23.6179774 C39.6283174,20.9925506 41.7564561,18.8650845 44.3812055,18.8650845 C47.0059549,18.8650845 49.1340935,20.9925506 49.1340935,23.6179774" id="Fill-20" fill="#8FBBC4"></path>
                        <path d="M33.4996964,0 C31.1887024,0 28.9316878,0.234135976 26.7522687,0.680141394 C42.0196733,3.80217932 53.5051447,17.3091936 53.5051447,33.4996626 C53.5051447,49.6908064 42.0196733,63.1978207 26.7522687,66.3198586 C28.9316878,66.765864 31.1887024,67 33.4996964,67 C52.001143,67 67,52.0011279 67,33.4996626 C67,14.9988721 52.001143,0 33.4996964,0" id="Fill-40" fill="#67939F"></path>
                    </g>
                </g>
                <path d="M96,101.500356 C100.500356,101.500356 100.500356,97 100.500356,97 C100.500356,97 100.500356,101.500356 105,101.500356 C100.500356,101.500356 100.500356,106 100.500356,106 C100.500356,106 100.500356,101.500356 96,101.500356" id="Fill-22" fill="#DAE7EF"></path>
                <path d="M12,37 C18,37 18,31 18,31 C18,31 18,37 24,37 C18,37 18,43 18,43 C18,43 18,37 12,37" id="Fill-24" fill="#DAE7EF"></path>
                <path d="M22,104.999669 C28,104.999669 28,99 28,99 C28,99 28,104.999669 34,104.999669 C28,104.999669 28,111 28,111 C28,111 28,104.999669 22,104.999669" id="Fill-26" fill="#DAE7EF"></path>
                <path d="M111,36.9996694 C117,36.9996694 117,31 117,31 C117,31 117,36.9996694 123,36.9996694 C117,36.9996694 117,43 117,43 C117,43 117,36.9996694 111,36.9996694" id="Fill-28" fill="#DAE7EF"></path>
                <path d="M58,119.5 C60.5,119.5 60.5,117 60.5,117 C60.5,117 60.5,119.5 63,119.5 C60.5,119.5 60.5,122 60.5,122 C60.5,122 60.5,119.5 58,119.5" id="Fill-30" fill="#DAE7EF"></path>
                <path d="M79,13.5 C81.5,13.5 81.5,11 81.5,11 C81.5,11 81.5,13.5 84,13.5 C81.5,13.5 81.5,16 81.5,16 C81.5,16 81.5,13.5 79,13.5" id="Fill-32" fill="#DAE7EF"></path>
                <path d="M43,17.5 C47.5003589,17.5 47.5003589,13 47.5003589,13 C47.5003589,13 47.5003589,17.5 52,17.5 C47.5003589,17.5 47.5003589,22 47.5003589,22 C47.5003589,22 47.5003589,17.5 43,17.5" id="Fill-34" fill="#DAE7EF"></path>
                <path d="M7,69.5 C9.5,69.5 9.5,67 9.5,67 C9.5,67 9.5,69.5 12,69.5 C9.5,69.5 9.5,72 9.5,72 C9.5,72 9.5,69.5 7,69.5" id="Fill-36" fill="#DAE7EF"></path>
                <path d="M115,80.5 C117.5,80.5 117.5,78 117.5,78 C117.5,78 117.5,80.5 120,80.5 C117.5,80.5 117.5,83 117.5,83 C117.5,83 117.5,80.5 115,80.5" id="Fill-38" fill="#DAE7EF"></path>
            </g>
        </g>
    </g>
</svg>