<?xml version="1.0" encoding="UTF-8"?>
<svg width="132px" height="132px" viewBox="0 0 132 132" version="1.1" xmlns="http://www.w3.org/2000/svg" xmlns:xlink="http://www.w3.org/1999/xlink">
    <title>Group 40</title>
    <defs>
        <polygon id="path-1" points="0 0 132.000068 0 132.000068 132 0 132"></polygon>
    </defs>
    <g id="Page-1" stroke="none" stroke-width="1" fill="none" fill-rule="evenodd">
        <g id="About" transform="translate(-985.000000, -534.000000)">
            <g id="Group-40" transform="translate(985.000000, 534.000000)">
                <g id="Group-3">
                    <mask id="mask-2" fill="white">
                        <use xlink:href="#path-1"></use>
                    </mask>
                    <g id="Clip-2"></g>
                    <path d="M132.000136,65.9999322 C132.000136,102.451265 102.450722,132 66.0000678,132 C29.5494136,132 0,102.451265 0,65.9999322 C0,29.5492779 29.5494136,-0.000135690929 66.0000678,-0.000135690929 C102.450722,-0.000135690929 132.000136,29.5492779 132.000136,65.9999322" id="Fill-1" fill="#2F4867" mask="url(#mask-2)"></path>
                </g>
                <path d="M41.2564877,89.1800135 L82.0960651,130.019591 C105.461365,124.16317 123.886836,105.85575 129.906085,82.5555824 L88.8935022,41.5436776 L41.2564877,89.1800135 Z" id="Fill-4" fill="#253A51"></path>
                <path d="M99.684459,65.9999322 C99.684459,84.6031585 84.6030907,99.6838484 65.9998643,99.6838484 C47.3966379,99.6838484 32.3159481,84.6031585 32.3159481,65.9999322 C32.3159481,47.3967058 47.3966379,32.3153375 65.9998643,32.3153375 C84.6030907,32.3153375 99.684459,47.3967058 99.684459,65.9999322" id="Fill-6" fill="#DAE7EF"></path>
                <path d="M85.3401638,91.4479517 C81.3135355,94.9555622 76.4646201,95.9793503 74.5093138,93.7343439 C72.5540076,91.4900159 74.2325044,86.8263187 78.2591327,83.3193866 C82.285761,79.8117761 87.1346763,78.7886665 89.0899826,81.0329945 C91.0452889,83.2780009 89.3667921,87.9410197 85.3401638,91.4479517" id="Fill-8" fill="#8FBBC4"></path>
                <path d="M96.4528438,76.5861992 C95.799492,78.0089186 94.4039108,78.7640386 93.3380585,78.2735159 C92.2708494,77.7836717 91.9363712,76.2327243 92.5904015,74.8106834 C93.2444318,73.3886425 94.6386561,72.632844 95.7051868,73.1233667 C96.7717175,73.6138894 97.1068741,75.1641583 96.4528438,76.5861992" id="Fill-10" fill="#8FBBC4"></path>
                <path d="M62.9084179,97.7700635 C60.333004,97.6879705 58.2949263,96.0562871 58.3559872,94.1240482 C58.4170481,92.1924879 60.5548587,90.6931031 63.1302725,90.7745177 C65.7063648,90.8566107 67.7437641,92.4889725 67.6833817,94.4205329 C67.6216423,96.3520933 65.4838317,97.8514781 62.9084179,97.7700635" id="Fill-12" fill="#8FBBC4"></path>
                <path d="M54.2220274,46.8203586 C51.3012801,48.9262818 47.652551,48.8577579 46.0731086,46.6677063 C44.4936662,44.4769762 45.581229,40.9937901 48.5019763,38.8878669 C51.4227235,36.7812652 55.0707741,36.8497891 56.650895,39.0405192 C58.2303374,41.2312492 57.1427746,44.7144354 54.2220274,46.8203586" id="Fill-14" fill="#8FBBC4"></path>
                <path d="M44.0965667,53.2236135 C44.0965667,54.7922006 42.8251427,56.0636247 41.2565556,56.0636247 C39.6879684,56.0636247 38.4165444,54.7922006 38.4165444,53.2236135 C38.4165444,51.6550264 39.6879684,50.3836024 41.2565556,50.3836024 C42.8251427,50.3836024 44.0965667,51.6550264 44.0965667,53.2236135" id="Fill-16" fill="#8FBBC4"></path>
                <path d="M81.8624053,39.4553942 C83.8774156,41.3136814 84.649497,43.7547613 83.5863585,44.9081342 C82.5232201,46.0615071 80.0271855,45.4895698 78.0114967,43.6312825 C75.9964864,41.7729952 75.224405,39.331237 76.2882219,38.1785425 C77.3513604,37.0251696 79.8467165,37.5971069 81.8624053,39.4553942" id="Fill-18" fill="#8FBBC4"></path>
                <path d="M81.7203369,56.0636247 C81.7203369,58.7028132 79.5804909,60.8426592 76.9413024,60.8426592 C74.3021138,60.8426592 72.1622678,58.7028132 72.1622678,56.0636247 C72.1622678,53.4244361 74.3021138,51.2845901 76.9413024,51.2845901 C79.5804909,51.2845901 81.7203369,53.4244361 81.7203369,56.0636247" id="Fill-20" fill="#8FBBC4"></path>
                <path d="M96.2415052,101.722808 C100.532052,101.722808 100.532052,97.4322609 100.532052,97.4322609 C100.532052,97.4322609 100.532052,101.722808 104.821921,101.722808 C100.532052,101.722808 100.532052,106.012677 100.532052,106.012677 C100.532052,106.012677 100.532052,101.722808 96.2415052,101.722808" id="Fill-22" fill="#DAE7EF"></path>
                <path d="M12.0730326,37.3517777 C18.2300085,37.3517777 18.2300085,31.1948018 18.2300085,31.1948018 C18.2300085,31.1948018 18.2300085,37.3517777 24.3869844,37.3517777 C18.2300085,37.3517777 18.2300085,43.5087536 18.2300085,43.5087536 C18.2300085,43.5087536 18.2300085,37.3517777 12.0730326,37.3517777" id="Fill-24" fill="#DAE7EF"></path>
                <path d="M21.4809596,105.841231 C27.6379355,105.841231 27.6379355,99.6842554 27.6379355,99.6842554 C27.6379355,99.6842554 27.6379355,105.841231 33.7949114,105.841231 C27.6379355,105.841231 27.6379355,111.998207 27.6379355,111.998207 C27.6379355,111.998207 27.6379355,105.841231 21.4809596,105.841231" id="Fill-26" fill="#DAE7EF"></path>
                <path d="M110.850126,37.4243724 C117.007102,37.4243724 117.007102,31.2673965 117.007102,31.2673965 C117.007102,31.2673965 117.007102,37.4243724 123.164078,37.4243724 C117.007102,37.4243724 117.007102,43.5813483 117.007102,43.5813483 C117.007102,43.5813483 117.007102,37.4243724 110.850126,37.4243724" id="Fill-28" fill="#DAE7EF"></path>
                <path d="M58.1463447,120.194143 C60.6905496,120.194143 60.6905496,117.649938 60.6905496,117.649938 C60.6905496,117.649938 60.6905496,120.194143 63.2347546,120.194143 C60.6905496,120.194143 60.6905496,122.738348 60.6905496,122.738348 C60.6905496,122.738348 60.6905496,120.194143 58.1463447,120.194143" id="Fill-30" fill="#DAE7EF"></path>
                <path d="M78.798097,13.7509866 C81.342302,13.7509866 81.342302,11.2067817 81.342302,11.2067817 C81.342302,11.2067817 81.342302,13.7509866 83.8865069,13.7509866 C81.342302,13.7509866 81.342302,16.2951915 81.342302,16.2951915 C81.342302,16.2951915 81.342302,13.7509866 78.798097,13.7509866" id="Fill-32" fill="#DAE7EF"></path>
                <path d="M43.6387455,18.004558 C47.8926561,18.004558 47.8926561,13.7506474 47.8926561,13.7506474 C47.8926561,13.7506474 47.8926561,18.004558 52.1458883,18.004558 C47.8926561,18.004558 47.8926561,22.2577901 47.8926561,22.2577901 C47.8926561,22.2577901 47.8926561,18.004558 43.6387455,18.004558" id="Fill-34" fill="#DAE7EF"></path>
                <path d="M7.3096025,70.1190338 C9.85380742,70.1190338 9.85380742,67.5748289 9.85380742,67.5748289 C9.85380742,67.5748289 9.85380742,70.1190338 12.3980123,70.1190338 C9.85380742,70.1190338 9.85380742,72.6632388 9.85380742,72.6632388 C9.85380742,72.6632388 9.85380742,70.1190338 7.3096025,70.1190338" id="Fill-36" fill="#DAE7EF"></path>
                <path d="M114.463033,80.7205661 C117.007238,80.7205661 117.007238,78.1763612 117.007238,78.1763612 C117.007238,78.1763612 117.007238,80.7205661 119.551443,80.7205661 C117.007238,80.7205661 117.007238,83.264771 117.007238,83.264771 C117.007238,83.264771 117.007238,80.7205661 114.463033,80.7205661" id="Fill-38" fill="#DAE7EF"></path>
            </g>
        </g>
    </g>
</svg>