<?xml version="1.0" encoding="UTF-8"?>
<svg width="132px" height="132px" viewBox="0 0 132 132" version="1.1" xmlns="http://www.w3.org/2000/svg" xmlns:xlink="http://www.w3.org/1999/xlink">
    <title>Group 42</title>
    <defs>
        <polygon id="path-1" points="0 0 132 0 132 132 0 132"></polygon>
    </defs>
    <g id="Page-1" stroke="none" stroke-width="1" fill="none" fill-rule="evenodd">
        <g id="About" transform="translate(-1310.000000, -736.000000)">
            <g id="Group-42" transform="translate(1310.000000, 736.000000)">
                <g id="Group-3">
                    <mask id="mask-2" fill="white">
                        <use xlink:href="#path-1"></use>
                    </mask>
                    <g id="Clip-2"></g>
                    <path d="M132.000068,65.9999322 C132.000068,102.451265 102.450669,132 66.0000339,132 C29.5493984,132 0,102.451265 0,65.9999322 C0,29.5485995 29.5493984,-0.000135690929 66.0000339,-0.000135690929 C102.450669,-0.000135690929 132.000068,29.5485995 132.000068,65.9999322" id="Fill-1" fill="#2F4867" mask="url(#mask-2)"></path>
                </g>
                <path d="M96,101.500356 C100.500356,101.500356 100.500356,97 100.500356,97 C100.500356,97 100.500356,101.500356 105,101.500356 C100.500356,101.500356 100.500356,106 100.500356,106 C100.500356,106 100.500356,101.500356 96,101.500356" id="Fill-22" fill="#DAE7EF"></path>
                <path d="M12,37 C18,37 18,31 18,31 C18,31 18,37 24,37 C18,37 18,43 18,43 C18,43 18,37 12,37" id="Fill-24" fill="#DAE7EF"></path>
                <path d="M22,104.999669 C28,104.999669 28,99 28,99 C28,99 28,104.999669 34,104.999669 C28,104.999669 28,111 28,111 C28,111 28,104.999669 22,104.999669" id="Fill-26" fill="#DAE7EF"></path>
                <path d="M111,36.9996694 C117,36.9996694 117,31 117,31 C117,31 117,36.9996694 123,36.9996694 C117,36.9996694 117,43 117,43 C117,43 117,36.9996694 111,36.9996694" id="Fill-28" fill="#DAE7EF"></path>
                <path d="M58,119.5 C60.5,119.5 60.5,117 60.5,117 C60.5,117 60.5,119.5 63,119.5 C60.5,119.5 60.5,122 60.5,122 C60.5,122 60.5,119.5 58,119.5" id="Fill-30" fill="#DAE7EF"></path>
                <path d="M79,13.5 C81.5,13.5 81.5,11 81.5,11 C81.5,11 81.5,13.5 84,13.5 C81.5,13.5 81.5,16 81.5,16 C81.5,16 81.5,13.5 79,13.5" id="Fill-32" fill="#DAE7EF"></path>
                <path d="M43,17.5 C47.5003589,17.5 47.5003589,13 47.5003589,13 C47.5003589,13 47.5003589,17.5 52,17.5 C47.5003589,17.5 47.5003589,22 47.5003589,22 C47.5003589,22 47.5003589,17.5 43,17.5" id="Fill-34" fill="#DAE7EF"></path>
                <path d="M7,69.5 C9.5,69.5 9.5,67 9.5,67 C9.5,67 9.5,69.5 12,69.5 C9.5,69.5 9.5,72 9.5,72 C9.5,72 9.5,69.5 7,69.5" id="Fill-36" fill="#DAE7EF"></path>
                <path d="M115,80.5 C117.5,80.5 117.5,78 117.5,78 C117.5,78 117.5,80.5 120,80.5 C117.5,80.5 117.5,83 117.5,83 C117.5,83 117.5,80.5 115,80.5" id="Fill-38" fill="#DAE7EF"></path>
            </g>
        </g>
    </g>
</svg>