<?xml version="1.0" encoding="UTF-8"?>
<svg width="33px" height="21px" viewBox="0 0 33 21" version="1.1" xmlns="http://www.w3.org/2000/svg" xmlns:xlink="http://www.w3.org/1999/xlink">
    <title>Group 11</title>
    <defs>
        <polygon id="path-1" points="0 0 32.9318182 0 32.9318182 21 0 21"></polygon>
        <polygon id="path-3" points="0 0 21.4772727 0 21.4772727 18.6136364 0 18.6136364"></polygon>
    </defs>
    <g id="Page-1" stroke="none" stroke-width="1" fill="none" fill-rule="evenodd">
        <g id="About" transform="translate(-345.000000, -380.000000)">
            <g id="Group-11" transform="translate(345.000000, 380.000000)">
                <g id="Group-3">
                    <mask id="mask-2" fill="white">
                        <use xlink:href="#path-1"></use>
                    </mask>
                    <g id="Clip-2"></g>
                    <path d="M25.0311704,18.7301338 C25.1065859,18.7317566 25.1813009,18.7350021 25.2571834,18.7350021 C29.4956271,18.7350021 32.9318182,15.819633 32.9318182,12.2234083 C32.9318182,8.93921347 30.0655627,6.2243687 26.3398509,5.77765144 C25.0456465,2.43271975 21.1154022,0 16.4660258,0 C11.8168829,0 7.88593824,2.43271975 6.59173378,5.77765144 C2.86625545,6.2243687 0,8.93921347 0,12.2234083 C0,15.819633 3.43642455,18.7350021 7.67486827,18.7350021 C7.81425851,18.7350021 7.95248132,18.7312929 8.09000367,18.7252656 C8.18363095,18.7312929 8.27772519,18.7350021 8.37275338,18.7350021 L19.976465,18.7350021 C20.501805,20.0512764 21.9559464,21.0001159 23.6748591,21.0001159 C24.3575677,21.0001159 24.9987161,20.8501283 25.5574444,20.587708 C24.6052947,20.2332551 23.8527743,19.5644543 23.4745294,18.7350021 L24.8385457,18.7350021 C24.9032209,18.7350021 24.9676626,18.7329157 25.0311704,18.7301338" id="Fill-1" fill="#F05662" mask="url(#mask-2)"></path>
                </g>
                <g id="Group-6" transform="translate(10.977273, 2.386364)">
                    <mask id="mask-4" fill="white">
                        <use xlink:href="#path-3"></use>
                    </mask>
                    <g id="Clip-5"></g>
                    <path d="M13.6564715,16.3504514 C13.7311248,16.3520693 13.8050847,16.3553052 13.8802003,16.3553052 C18.0758089,16.3553052 21.4772727,13.4485172 21.4772727,9.86287776 C21.4772727,6.58834964 18.6399846,3.88149577 14.951926,3.43609338 C14.4455316,2.11652813 13.5288906,0.940730531 12.3231125,0 C12.4123267,0.650190413 12.4620185,1.31286226 12.4620185,1.98778441 C12.4620185,9.30722267 7.04352851,15.3581771 0,16.3553052 L8.65285054,16.3553052 C9.17288136,17.6677052 10.6123267,18.6137519 12.3138675,18.6137519 C12.9896764,18.6137519 13.6243451,18.4642058 14.1774268,18.2025579 C13.2348998,17.8491483 12.4899846,17.182316 12.1155624,16.3553052 L13.4657935,16.3553052 C13.5298151,16.3553052 13.5936055,16.353225 13.6564715,16.3504514" id="Fill-4" fill="#E24053" mask="url(#mask-4)"></path>
                </g>
                <path d="M23.489148,6.68181818 C22.8253494,10.3905986 20.6803885,13.6099691 17.6590909,15.75 L22.3174752,15.75 C22.3641817,15.75 22.4106523,15.7486355 22.4564152,15.7465887 C22.5109061,15.7479532 22.5649253,15.75 22.6196521,15.75 C25.6791641,15.75 28.1590909,13.7068504 28.1590909,11.1863444 C28.1590909,8.90963353 26.1344346,7.02613346 23.489148,6.68181818" id="Fill-7" fill="#F96982"></path>
                <path d="M23.3863636,6.99847354 C23.3576282,6.9945389 23.3300423,6.98828978 23.3008471,6.98481804 C22.3967168,4.61524273 19.6629467,2.88955866 16.4220545,2.8661823 C16.3995259,2.86571941 16.377687,2.86363636 16.3553884,2.86363636 C13.0846113,2.86363636 10.3195771,4.59880985 9.40946984,6.98481804 C6.78880225,7.30329193 4.77272727,9.24005753 4.77272727,11.5827848 C4.77272727,14.1479345 7.18971841,16.2272727 10.1713025,16.2272727 C10.2692327,16.2272727 10.3667032,16.2249582 10.4632541,16.2203293 C10.5292305,16.2247268 10.595207,16.2272727 10.662103,16.2272727 L16.4220545,16.2272727 L17.7048023,16.2272727 C20.6491453,14.0493372 22.7394725,10.7729446 23.3863636,6.99847354" id="Fill-9" fill="#FC7585"></path>
            </g>
        </g>
    </g>
</svg>