<?xml version="1.0" encoding="UTF-8"?>
<svg width="21px" height="21px" viewBox="0 0 21 21" version="1.1" xmlns="http://www.w3.org/2000/svg" xmlns:xlink="http://www.w3.org/1999/xlink">
    <title>Group 11</title>
    <defs>
        <polygon id="path-1" points="0 -2.72927513e-15 20.4621481 -2.72927513e-15 20.4621481 15.9102753 0 15.9102753"></polygon>
        <polygon id="path-3" points="0 0 19.3349734 0 19.3349734 15.2392328 0 15.2392328"></polygon>
    </defs>
    <g id="Page-1" stroke="none" stroke-width="1" fill="none" fill-rule="evenodd">
        <g id="About" transform="translate(-1123.000000, -407.000000)">
            <g id="Group-11" transform="translate(1123.000000, 407.000000)">
                <g id="Group-3" transform="translate(0.230313, 5.089725)">
                    <mask id="mask-2" fill="white">
                        <use xlink:href="#path-1"></use>
                    </mask>
                    <g id="Clip-2"></g>
                    <path d="M20.4621865,5.39061836 C20.4621865,3.52710226 19.967067,1.6651226 19.1047371,-2.72927513e-15 C18.3054014,5.73459005 13.3841671,10.1493736 7.42948128,10.1493736 C4.61279292,10.1493736 2.02791575,9.16047897 0,7.51264138 C0.998497393,11.9702533 5.14728383,14.6574962 10.1159559,14.6574962 C10.4099931,14.6574962 10.6996131,14.6455887 10.9873124,14.6271514 C11.5878705,15.3997913 12.6063417,15.9102753 13.7686626,15.9102753 C14.3538562,15.9102753 14.9039036,15.7808297 15.3832745,15.5542041 C14.6446284,15.2772598 14.0507923,14.7756104 13.7039398,14.1525818 C17.6495313,12.9827708 20.4621865,9.84342891 20.4621865,5.39061836" id="Fill-1" fill="#F7DA06" mask="url(#mask-2)"></path>
                </g>
                <g id="Group-6">
                    <mask id="mask-4" fill="white">
                        <use xlink:href="#path-3"></use>
                    </mask>
                    <g id="Clip-5"></g>
                    <path d="M19.3349734,5.08966713 C17.5536572,1.64937404 14.4329447,0 10.5820366,0 C4.86761237,0 -3.84111326e-05,4.76605334 -3.84111326e-05,10.4802855 C-3.84111326e-05,11.2258456 0.0806249674,11.9335707 0.230236329,12.6023085 C2.25815208,14.2501461 4.84302925,15.2392328 7.65971761,15.2392328 C13.6145955,15.2392328 18.5356378,10.8242572 19.3349734,5.08966713" id="Fill-4" fill="#F9E421" mask="url(#mask-4)"></path>
                </g>
                <path d="M7.65971761,15.2389831 C6.81601708,15.2389831 5.99382678,15.1487169 5.20082895,14.9804762 C6.52274808,16.0986242 8.34017082,16.7183879 10.3461922,16.7183879 C14.3880037,16.7183879 17.6638971,14.2057236 17.6638971,10.1642963 C17.6638971,10.0129564 17.6579434,9.86180863 17.6489168,9.71085288 C15.562424,13.0307271 11.8699619,15.2389831 7.65971761,15.2389831" id="Fill-7" fill="#FCE351"></path>
                <path d="M17.6488591,9.71081447 C17.4158956,5.82610457 14.5043318,2.94488551 10.6140523,2.94488551 C6.57224082,2.94488551 3.02862178,6.12283057 3.02862178,10.1642579 C3.02862178,12.1994718 3.85983869,13.846157 5.20096339,14.9804378 C5.99376917,15.1486785 6.81615152,15.2389447 7.65965999,15.2389447 C11.8699042,15.2389447 15.5625585,13.0306887 17.6488591,9.71081447" id="Fill-9" fill="#FFEC5F"></path>
            </g>
        </g>
    </g>
</svg>