<?xml version="1.0" encoding="UTF-8"?>
<svg width="52px" height="52px" viewBox="0 0 52 52" version="1.1" xmlns="http://www.w3.org/2000/svg" xmlns:xlink="http://www.w3.org/1999/xlink">
    <title>Asset 2</title>
    <g id="Page-1" stroke="none" stroke-width="1" fill="none" fill-rule="evenodd">
        <g id="About" transform="translate(-345.000000, -141.000000)" fill="#FFFFFF" fill-rule="nonzero">
            <g id="Asset-2" transform="translate(345.000000, 141.000000)">
                <path d="M51,32.3168294 C48.3913441,41.723419 40.643596,48.8158165 31.0450005,50.5839164 C30.1034407,50.7575914 29.1525543,50.8761906 28.1971853,50.9391097 C27.6154463,50.9763204 27.0337074,51 26.4384396,51 C16.0075016,50.9889031 6.63809961,44.6163268 2.79359627,34.9180165 C-1.05090706,25.2197062 1.40699555,14.1570353 8.99641714,7 C6.88667688,14.6655185 8.47554172,22.876655 13.2924144,29.2013975 C18.1092871,35.5261399 25.6019579,39.2394152 33.5512131,39.2414085 C34.1397165,39.2414085 34.7282199,39.2177289 35.3065767,39.1805182 C36.2621477,39.1178925 37.2131177,38.9981532 38.1543918,38.821942 C42.9745853,37.9400288 47.4362127,35.6806271 51,32.3168294 L51,32.3168294 Z" id="Path" opacity="0.35"></path>
                <path d="M31,17 C28.2385763,17 26,14.7614237 26,12 C26,9.23857625 28.2385763,7 31,7 C33.7614237,7 36,9.23857625 36,12 C35.9963078,14.759893 33.759893,16.9963078 31,17 L31,17 Z M31,8.10924788 C29.426034,8.10789363 28.0062969,9.05498458 27.4030266,10.5087506 C26.7997563,11.9625167 27.1318047,13.6365473 28.2442875,14.7499891 C29.3567704,15.863431 31.0305142,16.1969218 32.4847996,15.5949044 C33.9390849,14.992887 34.8873995,13.5739666 34.8873995,12 C34.8855552,9.85327004 33.1467276,8.11294343 31,8.10924788 L31,8.10924788 Z" id="Shape"></path>
                <path d="M38,24 C36.3431458,24 35,22.6568542 35,21 C35,19.3431458 36.3431458,18 38,18 C39.6568542,18 41,19.3431458 41,21 C40.997989,22.6560206 39.6560206,23.997989 38,24 L38,24 Z M38,19.2116788 C37.0123375,19.2116788 36.2116788,20.0123375 36.2116788,21 C36.2116788,21.9876625 37.0123375,22.7883212 38,22.7883212 C38.9876625,22.7883212 39.7883212,21.9876625 39.7883212,21 C39.7783315,20.0188761 38.9811728,19.2282248 38,19.2262774 L38,19.2116788 Z" id="Shape"></path>
                <path d="M12.5000498,40 C11.0841515,40 9.80773422,39.1469054 9.26620325,37.8386576 C8.72467229,36.5304097 9.02472043,35.0247598 10.0263854,34.0240423 C11.0280504,33.0233249 12.5339835,32.724702 13.8417181,33.267471 C15.1494527,33.8102401 16.001338,35.0874644 16,36.5033622 C15.9963491,38.4342808 14.4309708,39.9981784 12.5000498,40 Z M12.5000498,34.0994237 C11.1723913,34.0994237 10.0961115,35.1757036 10.0961115,36.5033622 C10.0961115,37.8310208 11.1723913,38.9073007 12.5000498,38.9073007 C13.8277082,38.9073007 14.903988,37.8310208 14.903988,36.5033622 C14.903988,35.1757036 13.8277082,34.0994237 12.5000498,34.0994237 L12.5000498,34.0994237 Z" id="Shape"></path>
                <path d="M27.3289902,52 L27.1645193,51.6616079 C26.8415417,50.9506264 27.0027321,50.1241517 27.5722386,49.5711004 C28.1417451,49.0180491 29.006135,48.8485764 29.7586498,49.1424315 C30.5111645,49.4362867 31.0019204,50.1349405 31,50.9096253 C31.0005499,51.0202181 30.9884165,51.1305384 30.9637973,51.2386177 L30.8848512,51.5738766 L30.5328835,51.6365418 C29.5964996,51.8015041 28.6508423,51.914492 27.7006944,51.9749339 L27.3289902,52 Z M29.0098829,50.0573751 C28.5104994,50.0590833 28.1056059,50.443358 28.1020035,50.9190251 C28.7105458,50.8688929 29.3092199,50.7999612 29.891447,50.7059634 C29.7877164,50.3232824 29.4248098,50.0562846 29.0098829,50.0573751 Z" id="Shape"></path>
                <path d="M25.9848134,52 C12.0861346,51.9924948 0.651430777,41.0544433 0.026710079,27.1693551 C-0.598010619,13.2842668 9.80822367,1.36347906 23.6500684,0.107784893 C37.4919131,-1.14790927 49.8733266,8.70564557 51.7573126,22.4764968 C53.6412985,36.2473479 44.3614664,49.0645653 30.6910178,51.573066 C29.7307681,51.7504653 28.7609871,51.8716919 27.7866174,51.936128 C27.2084265,51.9798299 26.5999815,52 25.9848134,52 Z M25.9848134,1.37975249 C17.1233333,1.27618395 8.8903096,5.94453123 4.4294033,13.6022535 C-0.0315030016,21.2599757 -0.0315030016,30.7246777 4.4294033,38.3823999 C8.8903096,46.0401221 17.1233333,50.7084694 25.9848134,50.6049009 C26.5663658,50.6049009 27.1378335,50.6049009 27.6656007,50.5477522 C28.587917,50.4889407 29.5060472,50.3766962 30.4153687,50.2115838 C42.9531595,47.932997 51.6786703,36.4612103 50.5271656,23.7697802 C49.3756609,11.0783501 38.7279519,1.36442796 25.9848134,1.37975249 Z" id="Shape"></path>
            </g>
        </g>
    </g>
</svg>