<?xml version="1.0" encoding="UTF-8"?>
<svg width="45px" height="45px" viewBox="0 0 45 45" version="1.1" xmlns="http://www.w3.org/2000/svg" xmlns:xlink="http://www.w3.org/1999/xlink">
    <title>Asset 2</title>
    <g id="Page-1" stroke="none" stroke-width="1" fill="none" fill-rule="evenodd">
        <g id="Lesson" transform="translate(-375.000000, -25.000000)" fill="#000000" fill-rule="nonzero">
            <g id="Asset-2" transform="translate(375.017564, 25.010350)">
                <path d="M43.6868469,28.2583592 C41.4466177,36.3314061 34.7931029,42.4183366 26.5501403,43.9357786 C25.7415593,44.0848323 24.9249689,44.186618 24.104529,44.2406173 C23.6049504,44.2725528 23.1053718,44.2928753 22.5941752,44.2928753 C13.6364238,44.2833516 5.59028521,38.8141955 2.2887504,30.4907842 C-1.01278441,22.1673729 1.09798265,12.6730221 7.61553184,6.53061727 C5.8037553,13.1094193 7.16822092,20.1564887 11.304795,25.5845923 C15.4413691,31.0126958 21.8758318,34.1995517 28.7023945,34.2012624 C29.2077821,34.2012624 29.7131697,34.1809398 30.2098438,34.1490044 C31.0304572,34.0952569 31.8471194,33.9924927 32.6554551,33.8412624 C36.794881,33.0843753 40.6263819,31.1452819 43.6868469,28.2583592 L43.6868469,28.2583592 Z" id="Path" opacity="0.35"></path>
                <path d="M26.5849946,15.0312624 C24.1916391,15.0312624 22.251441,13.0919333 22.251441,10.6996495 C22.251441,8.30736578 24.1916391,6.36803662 26.5849946,6.36803662 C28.9783502,6.36803662 30.9185482,8.30736578 30.9185482,10.6996495 C30.9153482,13.0906071 28.9770234,15.0280638 26.5849946,15.0312624 L26.5849946,15.0312624 Z M26.5849946,7.3290031 C25.2208214,7.32782989 23.9903201,8.14831616 23.4674592,9.40774652 C22.9445984,10.6671769 23.2323883,12.1174274 24.1965891,13.0820272 C25.1607899,14.046627 26.6114416,14.3355377 27.8718863,13.8139964 C29.132331,13.2924551 29.9542454,12.0632123 29.9542454,10.6996495 C29.952647,8.83988888 28.4455864,7.33220464 26.5849946,7.3290031 L26.5849946,7.3290031 Z" id="Shape"></path>
                <path d="M32.4637563,20.3122302 C31.145165,20.3122302 30.0762355,19.2437794 30.0762355,17.9257786 C30.0762355,16.6077777 31.145165,15.5393269 32.4637563,15.5393269 C33.7823477,15.5393269 34.8512772,16.6077777 34.8512772,17.9257786 C34.8496768,19.2431162 33.7816842,20.3106305 32.4637563,20.3122302 L32.4637563,20.3122302 Z M32.4637563,16.5031979 C31.6777347,16.5031979 31.0405383,17.140109 31.0405383,17.9257786 C31.0405383,18.7114482 31.6777347,19.3483592 32.4637563,19.3483592 C33.2497779,19.3483592 33.8869743,18.7114482 33.8869743,17.9257786 C33.8790242,17.1453103 33.2446132,16.51636 32.4637563,16.5148108 L32.4637563,16.5031979 Z" id="Shape"></path>
                <path d="M10.755325,34.6802947 C9.51332754,34.6802947 8.39367999,33.9323125 7.91865993,32.7852578 C7.44363986,31.6382031 7.70683605,30.3180689 8.58547643,29.4406529 C9.4641168,28.5632369 10.785091,28.3014082 11.9322095,28.7773011 C13.079328,29.2531939 13.8265846,30.3730475 13.825411,31.6144882 C13.8222085,33.3074925 12.4490901,34.6786975 10.755325,34.6802947 Z M10.755325,29.5067463 C9.59072976,29.5067463 8.64663876,30.4504145 8.64663876,31.6144882 C8.64663876,32.778562 9.59072976,33.7222302 10.755325,33.7222302 C11.9199203,33.7222302 12.8640113,32.778562 12.8640113,31.6144882 C12.8640113,30.4504145 11.9199203,29.5067463 10.755325,29.5067463 L10.755325,29.5067463 Z" id="Shape"></path>
                <path d="M23.6543274,44.7573915 L23.509101,44.4438431 C23.2239148,43.7850598 23.3662444,43.0192625 23.8691135,42.5068146 C24.3719826,41.9943666 25.1352311,41.8373361 25.7996948,42.1096173 C26.4641586,42.3818985 26.8974916,43.0292591 26.8957959,43.7470689 C26.8962814,43.8495423 26.8855678,43.9517632 26.863832,44.0519076 L26.7941205,44.3625528 L26.4833362,44.4206173 C25.6565177,44.5734686 24.8215109,44.6781612 23.9825389,44.7341657 L23.6543274,44.7573915 Z M25.1385404,42.9573884 C24.6975893,42.9589712 24.3400721,43.3150336 24.3368911,43.7557786 C24.8742285,43.7093269 25.4028523,43.645456 25.9169535,43.5583592 C25.8253604,43.2037736 25.5049172,42.9563779 25.1385404,42.9573884 Z" id="Shape"></path>
                <path d="M22.4518534,44.9083592 C10.4428736,44.9018775 0.562860624,35.4555325 0.0230785101,23.4640607 C-0.516703604,11.4725889 8.47467313,1.17753091 20.4345461,0.0930854362 C32.3944191,-0.991360036 43.0924248,7.51838959 44.7202593,19.4112037 C46.3480939,31.3040177 38.3299709,42.3732523 26.5181905,44.5396495 C25.6884987,44.6928555 24.8505716,44.7975495 24.0086796,44.8531979 C23.509101,44.8909398 22.9833817,44.9083592 22.4518534,44.9083592 Z M22.4518534,1.19158501 C14.7952022,1.10214091 7.68156094,5.13382968 3.82717058,11.7472093 C-0.027219775,18.3605889 -0.027219775,26.5345166 3.82717058,33.1478962 C7.68156094,39.7612758 14.7952022,43.7929646 22.4518534,43.7035205 C22.9543365,43.7035205 23.448106,43.7035205 23.9041166,43.6541657 C24.7010325,43.6033747 25.4943315,43.5064378 26.2800194,43.3638431 C37.1131408,41.3960047 44.6523095,31.488714 43.6573662,20.5281121 C42.662423,9.56751015 33.462403,1.1783504 22.4518534,1.19158501 Z" id="Shape"></path>
            </g>
        </g>
    </g>
</svg>